<svg width="64" height="64" viewBox="0 0 24 24" xmlns="http://www.w3.org/2000/svg">
  <circle cx="12" cy="12" r="12" fill="#ffffff"></circle>
  <path d="M12 5a7 7 0 0 0-6 10.6L5 19l3.5-.9A7 7 0 1 0 12 5zm3.8 9.9c-.2.5-1.1 1-1.5 1-.4 0-.8.2-2.7-.6-2.2-.9-3.6-3.1-3.7-3.3-.1-.2-.9-1.2-.9-2.3s.6-1.7.8-2c.2-.3.5-.3.7-.3h.5c.2 0 .4 0 .6.4.2.5.7 1.7.7 1.8.1.2.1.4 0 .6-.1.2-.2.4-.4.6-.2.2-.4.4-.2.7.2.3.9 1.4 2 2 .1.1.3.1.5 0 .2-.2.8-.9 1-.9.3 0 .5 0 .7.1.2.2 1.4.7 1.6.8.2.1.4.2.4.3 0 .1 0 .6-.2 1z" fill="#556B3F"></path>
</svg>
